<svg xmlns="http://www.w3.org/2000/svg" width="1470" height="900" viewBox="0 0 1470 900">
<rect width="1470" height="900" fill="#0B1014"/>
<text x="36" y="40" font-family="Inter,Arial,sans-serif" font-size="24px" font-weight="700" fill="#F2F5F7" text-anchor="start">PeakPick — Grid / Main Library</text>
<rect x="24" y="58" width="1422" height="66" rx="12" fill="#141B21"/><text x="48" y="99" font-family="Inter,Arial,sans-serif" font-size="20px" font-weight="700" fill="#F2F5F7" text-anchor="start">△ PeakPick</text><rect x="205" y="70" width="145" height="42" rx="8" fill="#1B242C" stroke="#2B3740" stroke-width="1"/><text x="219" y="89" font-family="Inter,Arial,sans-serif" font-size="14px" font-weight="600" fill="#F2F5F7" text-anchor="start">Rank</text><text x="219" y="106" font-family="Inter,Arial,sans-serif" font-size="10px" font-weight="400" fill="#9AA8B2" text-anchor="start">Run Algorithm</text><rect x="360" y="70" width="145" height="42" rx="8" fill="#1B242C" stroke="#2B3740" stroke-width="1"/><text x="374" y="89" font-family="Inter,Arial,sans-serif" font-size="14px" font-weight="600" fill="#F2F5F7" text-anchor="start">Apply Cutoff</text><text x="374" y="106" font-family="Inter,Arial,sans-serif" font-size="10px" font-weight="400" fill="#9AA8B2" text-anchor="start">Top 5%</text><rect x="515" y="70" width="130" height="42" rx="8" fill="#1B242C" stroke="#2B3740" stroke-width="1"/><text x="529" y="89" font-family="Inter,Arial,sans-serif" font-size="14px" font-weight="600" fill="#F2F5F7" text-anchor="start">Keep</text><text x="529" y="106" font-family="Inter,Arial,sans-serif" font-size="10px" font-weight="400" fill="#9AA8B2" text-anchor="start">Selected</text><rect x="655" y="70" width="130" height="42" rx="8" fill="#1B242C" stroke="#2B3740" stroke-width="1"/><text x="669" y="89" font-family="Inter,Arial,sans-serif" font-size="14px" font-weight="600" fill="#F2F5F7" text-anchor="start">Reject</text><text x="669" y="106" font-family="Inter,Arial,sans-serif" font-size="10px" font-weight="400" fill="#9AA8B2" text-anchor="start">Selected</text><rect x="795" y="70" width="130" height="42" rx="8" fill="#1B242C" stroke="#2B3740" stroke-width="1"/><text x="809" y="89" font-family="Inter,Arial,sans-serif" font-size="14px" font-weight="600" fill="#F2F5F7" text-anchor="start">Clear</text><text x="809" y="106" font-family="Inter,Arial,sans-serif" font-size="10px" font-weight="400" fill="#9AA8B2" text-anchor="start">Selection</text><rect x="935" y="70" width="130" height="42" rx="8" fill="#1B242C" stroke="#2B3740" stroke-width="1"/><text x="949" y="89" font-family="Inter,Arial,sans-serif" font-size="14px" font-weight="600" fill="#F2F5F7" text-anchor="start">Export</text><text x="949" y="106" font-family="Inter,Arial,sans-serif" font-size="10px" font-weight="400" fill="#9AA8B2" text-anchor="start">Selected</text><rect x="1095" y="70" width="155" height="42" rx="8" fill="#202A32" stroke="#F5C542" stroke-width="1"/><text x="1110" y="89" font-family="Inter,Arial,sans-serif" font-size="12px" font-weight="600" fill="#F2F5F7" text-anchor="start">Algorithm Ran Last</text><text x="1110" y="106" font-family="Inter,Arial,sans-serif" font-size="10px" font-weight="400" fill="#9AA8B2" text-anchor="start">Color Source</text><rect x="1262" y="70" width="170" height="42" rx="8" fill="#202A32" stroke="#2B3740" stroke-width="1"/><text x="1277" y="89" font-family="Inter,Arial,sans-serif" font-size="12px" font-weight="600" fill="#F2F5F7" text-anchor="start">Score (High → Low)</text><text x="1277" y="106" font-family="Inter,Arial,sans-serif" font-size="10px" font-weight="400" fill="#9AA8B2" text-anchor="start">Sort</text><rect x="24" y="136" width="1422" height="54" rx="10" fill="#141B21"/><text x="42" y="158" font-family="Inter,Arial,sans-serif" font-size="10px" font-weight="600" fill="#9AA8B2" text-anchor="start">Filter</text><rect x="42" y="164" width="170" height="30" rx="7" fill="#1B242C" stroke="#2B3740" stroke-width="1"/><text x="52" y="185" font-family="Inter,Arial,sans-serif" font-size="12px" font-weight="500" fill="#F2F5F7" text-anchor="start">All Images</text><text x="228" y="158" font-family="Inter,Arial,sans-serif" font-size="10px" font-weight="600" fill="#9AA8B2" text-anchor="start">Domain</text><rect x="228" y="164" width="170" height="30" rx="7" fill="#1B242C" stroke="#2B3740" stroke-width="1"/><text x="238" y="185" font-family="Inter,Arial,sans-serif" font-size="12px" font-weight="500" fill="#F2F5F7" text-anchor="start">Birds + Mammals</text><text x="414" y="158" font-family="Inter,Arial,sans-serif" font-size="10px" font-weight="600" fill="#9AA8B2" text-anchor="start">Search</text><rect x="414" y="164" width="310" height="30" rx="7" fill="#1B242C" stroke="#2B3740" stroke-width="1"/><text x="424" y="185" font-family="Inter,Arial,sans-serif" font-size="12px" font-weight="500" fill="#F2F5F7" text-anchor="start">Filename or tag…</text><text x="740" y="158" font-family="Inter,Arial,sans-serif" font-size="10px" font-weight="600" fill="#9AA8B2" text-anchor="start">Burst</text><rect x="740" y="164" width="170" height="30" rx="7" fill="#1B242C" stroke="#2B3740" stroke-width="1"/><text x="750" y="185" font-family="Inter,Arial,sans-serif" font-size="12px" font-weight="500" fill="#F2F5F7" text-anchor="start">Score</text><text x="926" y="158" font-family="Inter,Arial,sans-serif" font-size="10px" font-weight="600" fill="#9AA8B2" text-anchor="start">View</text><rect x="926" y="164" width="170" height="30" rx="7" fill="#1B242C" stroke="#2B3740" stroke-width="1"/><text x="936" y="185" font-family="Inter,Arial,sans-serif" font-size="12px" font-weight="500" fill="#F2F5F7" text-anchor="start">Grid</text><rect x="24" y="204" width="190" height="654" rx="10" fill="#141B21"/><text x="44" y="234" font-family="Inter,Arial,sans-serif" font-size="11px" font-weight="700" fill="#9AA8B2" text-anchor="start">LIBRARIES</text><text x="50" y="260" font-family="Inter,Arial,sans-serif" font-size="13px" font-weight="400" fill="#9AA8B2" text-anchor="start">Recent Folders</text><rect x="36" y="276" width="165" height="30" rx="7" fill="#2B2919" stroke="#F5C542" stroke-width="1"/><text x="50" y="296" font-family="Inter,Arial,sans-serif" font-size="13px" font-weight="600" fill="#F2F5F7" text-anchor="start">Peak Pic Test</text><text x="50" y="332" font-family="Inter,Arial,sans-serif" font-size="13px" font-weight="400" fill="#9AA8B2" text-anchor="start">Tanzania 2026</text><text x="50" y="368" font-family="Inter,Arial,sans-serif" font-size="13px" font-weight="400" fill="#9AA8B2" text-anchor="start">Yellowstone 2024</text><text x="50" y="404" font-family="Inter,Arial,sans-serif" font-size="13px" font-weight="400" fill="#9AA8B2" text-anchor="start">Costa Rica 2023</text><text x="50" y="440" font-family="Inter,Arial,sans-serif" font-size="13px" font-weight="400" fill="#9AA8B2" text-anchor="start">Iceland 2023</text><text x="44" y="500" font-family="Inter,Arial,sans-serif" font-size="11px" font-weight="700" fill="#9AA8B2" text-anchor="start">COLLECTIONS</text><text x="50" y="528" font-family="Inter,Arial,sans-serif" font-size="13px" font-weight="400" fill="#9AA8B2" text-anchor="start">Birds Best Of</text><text x="50" y="562" font-family="Inter,Arial,sans-serif" font-size="13px" font-weight="400" fill="#9AA8B2" text-anchor="start">Mammals Best Of</text><text x="50" y="596" font-family="Inter,Arial,sans-serif" font-size="13px" font-weight="400" fill="#9AA8B2" text-anchor="start">Favorites</text><text x="50" y="630" font-family="Inter,Arial,sans-serif" font-size="13px" font-weight="400" fill="#9AA8B2" text-anchor="start">To Review</text><rect x="38" y="686" width="160" height="38" rx="8" fill="#1B242C" stroke="#2B3740" stroke-width="1"/><text x="52" y="710" font-family="Inter,Arial,sans-serif" font-size="12px" font-weight="600" fill="#F2F5F7" text-anchor="start">+  New Collection</text><rect x="234" y="204" width="228" height="184" rx="9" fill="#1B242C" stroke="#42CC8E" stroke-width="2"/><rect x="236" y="206" width="224" height="118" rx="8" fill="#31536A"/><path d="M236 290.96 Q276.32 262.64 321.12 290.96 T397.28 279.15999999999997 T460 290.96 L460 324 L236 324 Z" fill="#182E24"/><ellipse cx="352.48" cy="274.44" rx="29.12" ry="21.24" fill="#171D20"/><circle cx="365.91999999999996" cy="250.84" r="10.030000000000001" fill="#171D20"/><circle cx="374.88" cy="247.89" r="1.6520000000000001" fill="#DCEB74"/><path d="M365.91999999999996 255.56 L392.79999999999995 261.46" stroke="#171D20" stroke-width="3" stroke-linecap="round"/><rect x="242" y="296" width="90" height="26" rx="6" fill="#0B1014CC"/><text x="250" y="315" font-family="Inter,Arial,sans-serif" font-size="18px" font-weight="700" fill="#F2F5F7" text-anchor="start">0.946</text><text x="242" y="344" font-family="Inter,Arial,sans-serif" font-size="11px" font-weight="500" fill="#F2F5F7" text-anchor="start">001  DSC00034.ARW</text><text x="242" y="361" font-family="Inter,Arial,sans-serif" font-size="10px" font-weight="400" fill="#9AA8B2" text-anchor="start">14:23:51</text><text x="442" y="360" font-family="Inter,Arial,sans-serif" font-size="14px" font-weight="400" fill="#F2F5F7" text-anchor="end">♥</text><circle cx="437" cy="378" r="4" fill="#42CC8E"/><rect x="472" y="204" width="228" height="184" rx="9" fill="#1B242C" stroke="#42CC8E" stroke-width="2"/><rect x="474" y="206" width="224" height="118" rx="8" fill="#4A6B52"/><path d="M474 290.96 Q514.32 262.64 559.12 290.96 T635.28 279.15999999999997 T698 290.96 L698 324 L474 324 Z" fill="#24382A"/><ellipse cx="590.48" cy="274.44" rx="29.12" ry="21.24" fill="#171D20"/><circle cx="603.92" cy="250.84" r="10.030000000000001" fill="#171D20"/><circle cx="612.88" cy="247.89" r="1.6520000000000001" fill="#DCEB74"/><path d="M603.92 255.56 L630.8 261.46" stroke="#171D20" stroke-width="3" stroke-linecap="round"/><rect x="480" y="296" width="90" height="26" rx="6" fill="#0B1014CC"/><text x="488" y="315" font-family="Inter,Arial,sans-serif" font-size="18px" font-weight="700" fill="#F2F5F7" text-anchor="start">0.912</text><text x="480" y="344" font-family="Inter,Arial,sans-serif" font-size="11px" font-weight="500" fill="#F2F5F7" text-anchor="start">002  DSC00035.ARW</text><text x="480" y="361" font-family="Inter,Arial,sans-serif" font-size="10px" font-weight="400" fill="#9AA8B2" text-anchor="start">14:23:51</text><text x="680" y="360" font-family="Inter,Arial,sans-serif" font-size="14px" font-weight="400" fill="#F2F5F7" text-anchor="end">♥</text><circle cx="675" cy="378" r="4" fill="#42CC8E"/><rect x="710" y="204" width="228" height="184" rx="9" fill="#1B242C" stroke="#F5C542" stroke-width="2"/><rect x="712" y="206" width="224" height="118" rx="8" fill="#6A503B"/><path d="M712 290.96 Q752.32 262.64 797.12 290.96 T873.28 279.15999999999997 T936 290.96 L936 324 L712 324 Z" fill="#3B2A1D"/><ellipse cx="828.48" cy="274.44" rx="29.12" ry="21.24" fill="#171D20"/><circle cx="841.92" cy="250.84" r="10.030000000000001" fill="#171D20"/><circle cx="850.88" cy="247.89" r="1.6520000000000001" fill="#DCEB74"/><path d="M841.92 255.56 L868.8 261.46" stroke="#171D20" stroke-width="3" stroke-linecap="round"/><rect x="718" y="296" width="90" height="26" rx="6" fill="#0B1014CC"/><text x="726" y="315" font-family="Inter,Arial,sans-serif" font-size="18px" font-weight="700" fill="#F2F5F7" text-anchor="start">0.873</text><text x="718" y="344" font-family="Inter,Arial,sans-serif" font-size="11px" font-weight="500" fill="#F2F5F7" text-anchor="start">003  DSC00036.ARW</text><text x="718" y="361" font-family="Inter,Arial,sans-serif" font-size="10px" font-weight="400" fill="#9AA8B2" text-anchor="start">14:23:51</text><text x="918" y="360" font-family="Inter,Arial,sans-serif" font-size="14px" font-weight="400" fill="#F2F5F7" text-anchor="end">♥</text><circle cx="913" cy="378" r="4" fill="#F5C542"/><rect x="948" y="204" width="228" height="184" rx="9" fill="#1B242C" stroke="#F5C542" stroke-width="2"/><rect x="950" y="206" width="224" height="118" rx="8" fill="#355F5A"/><path d="M950 290.96 Q990.32 262.64 1035.12 290.96 T1111.28 279.15999999999997 T1174 290.96 L1174 324 L950 324 Z" fill="#1E352F"/><ellipse cx="1066.48" cy="274.44" rx="29.12" ry="21.24" fill="#171D20"/><circle cx="1079.92" cy="250.84" r="10.030000000000001" fill="#171D20"/><circle cx="1088.88" cy="247.89" r="1.6520000000000001" fill="#DCEB74"/><path d="M1079.92 255.56 L1106.8 261.46" stroke="#171D20" stroke-width="3" stroke-linecap="round"/><rect x="956" y="296" width="90" height="26" rx="6" fill="#0B1014CC"/><text x="964" y="315" font-family="Inter,Arial,sans-serif" font-size="18px" font-weight="700" fill="#F2F5F7" text-anchor="start">0.862</text><text x="956" y="344" font-family="Inter,Arial,sans-serif" font-size="11px" font-weight="500" fill="#F2F5F7" text-anchor="start">004  DSC00037.ARW</text><text x="956" y="361" font-family="Inter,Arial,sans-serif" font-size="10px" font-weight="400" fill="#9AA8B2" text-anchor="start">14:23:51</text><text x="1156" y="360" font-family="Inter,Arial,sans-serif" font-size="14px" font-weight="400" fill="#F2F5F7" text-anchor="end">♥</text><circle cx="1151" cy="378" r="4" fill="#F5C542"/><rect x="1186" y="204" width="228" height="184" rx="9" fill="#1B242C" stroke="#EF4444" stroke-width="2"/><rect x="1188" y="206" width="224" height="118" rx="8" fill="#31536A"/><path d="M1188 290.96 Q1228.32 262.64 1273.12 290.96 T1349.28 279.15999999999997 T1412 290.96 L1412 324 L1188 324 Z" fill="#182E24"/><ellipse cx="1304.48" cy="274.44" rx="29.12" ry="21.24" fill="#171D20"/><circle cx="1317.92" cy="250.84" r="10.030000000000001" fill="#171D20"/><circle cx="1326.88" cy="247.89" r="1.6520000000000001" fill="#DCEB74"/><path d="M1317.92 255.56 L1344.8 261.46" stroke="#171D20" stroke-width="3" stroke-linecap="round"/><rect x="1194" y="296" width="90" height="26" rx="6" fill="#0B1014CC"/><text x="1202" y="315" font-family="Inter,Arial,sans-serif" font-size="18px" font-weight="700" fill="#F2F5F7" text-anchor="start">0.831</text><text x="1194" y="344" font-family="Inter,Arial,sans-serif" font-size="11px" font-weight="500" fill="#F2F5F7" text-anchor="start">005  DSC00038.ARW</text><text x="1194" y="361" font-family="Inter,Arial,sans-serif" font-size="10px" font-weight="400" fill="#9AA8B2" text-anchor="start">14:23:51</text><text x="1394" y="360" font-family="Inter,Arial,sans-serif" font-size="14px" font-weight="400" fill="#F2F5F7" text-anchor="end">♥</text><circle cx="1389" cy="378" r="4" fill="#EF4444"/><rect x="234" y="398" width="228" height="184" rx="9" fill="#1B242C" stroke="#42CC8E" stroke-width="2"/><rect x="236" y="400" width="224" height="118" rx="8" fill="#4A6B52"/><path d="M236 484.96 Q276.32 456.64 321.12 484.96 T397.28 473.15999999999997 T460 484.96 L460 518 L236 518 Z" fill="#24382A"/><ellipse cx="352.48" cy="468.44" rx="29.12" ry="21.24" fill="#171D20"/><circle cx="365.91999999999996" cy="444.84000000000003" r="10.030000000000001" fill="#171D20"/><circle cx="374.88" cy="441.89" r="1.6520000000000001" fill="#DCEB74"/><path d="M365.91999999999996 449.56 L392.79999999999995 455.46" stroke="#171D20" stroke-width="3" stroke-linecap="round"/><rect x="242" y="490" width="90" height="26" rx="6" fill="#0B1014CC"/><text x="250" y="509" font-family="Inter,Arial,sans-serif" font-size="18px" font-weight="700" fill="#F2F5F7" text-anchor="start">0.812</text><text x="242" y="538" font-family="Inter,Arial,sans-serif" font-size="11px" font-weight="500" fill="#F2F5F7" text-anchor="start">006  DSC00039.ARW</text><text x="242" y="555" font-family="Inter,Arial,sans-serif" font-size="10px" font-weight="400" fill="#9AA8B2" text-anchor="start">14:23:51</text><text x="442" y="554" font-family="Inter,Arial,sans-serif" font-size="14px" font-weight="400" fill="#F2F5F7" text-anchor="end">♥</text><circle cx="437" cy="572" r="4" fill="#42CC8E"/><rect x="472" y="398" width="228" height="184" rx="9" fill="#1B242C" stroke="#42CC8E" stroke-width="2"/><rect x="474" y="400" width="224" height="118" rx="8" fill="#6A503B"/><path d="M474 484.96 Q514.32 456.64 559.12 484.96 T635.28 473.15999999999997 T698 484.96 L698 518 L474 518 Z" fill="#3B2A1D"/><ellipse cx="590.48" cy="468.44" rx="29.12" ry="21.24" fill="#171D20"/><circle cx="603.92" cy="444.84000000000003" r="10.030000000000001" fill="#171D20"/><circle cx="612.88" cy="441.89" r="1.6520000000000001" fill="#DCEB74"/><path d="M603.92 449.56 L630.8 455.46" stroke="#171D20" stroke-width="3" stroke-linecap="round"/><rect x="480" y="490" width="90" height="26" rx="6" fill="#0B1014CC"/><text x="488" y="509" font-family="Inter,Arial,sans-serif" font-size="18px" font-weight="700" fill="#F2F5F7" text-anchor="start">0.801</text><text x="480" y="538" font-family="Inter,Arial,sans-serif" font-size="11px" font-weight="500" fill="#F2F5F7" text-anchor="start">007  DSC00040.ARW</text><text x="480" y="555" font-family="Inter,Arial,sans-serif" font-size="10px" font-weight="400" fill="#9AA8B2" text-anchor="start">14:23:51</text><text x="680" y="554" font-family="Inter,Arial,sans-serif" font-size="14px" font-weight="400" fill="#F2F5F7" text-anchor="end">♥</text><circle cx="675" cy="572" r="4" fill="#42CC8E"/><rect x="710" y="398" width="228" height="184" rx="9" fill="#1B242C" stroke="#F5C542" stroke-width="2"/><rect x="712" y="400" width="224" height="118" rx="8" fill="#355F5A"/><path d="M712 484.96 Q752.32 456.64 797.12 484.96 T873.28 473.15999999999997 T936 484.96 L936 518 L712 518 Z" fill="#1E352F"/><ellipse cx="828.48" cy="468.44" rx="29.12" ry="21.24" fill="#171D20"/><circle cx="841.92" cy="444.84000000000003" r="10.030000000000001" fill="#171D20"/><circle cx="850.88" cy="441.89" r="1.6520000000000001" fill="#DCEB74"/><path d="M841.92 449.56 L868.8 455.46" stroke="#171D20" stroke-width="3" stroke-linecap="round"/><rect x="718" y="490" width="90" height="26" rx="6" fill="#0B1014CC"/><text x="726" y="509" font-family="Inter,Arial,sans-serif" font-size="18px" font-weight="700" fill="#F2F5F7" text-anchor="start">0.795</text><text x="718" y="538" font-family="Inter,Arial,sans-serif" font-size="11px" font-weight="500" fill="#F2F5F7" text-anchor="start">008  DSC00041.ARW</text><text x="718" y="555" font-family="Inter,Arial,sans-serif" font-size="10px" font-weight="400" fill="#9AA8B2" text-anchor="start">14:23:51</text><text x="918" y="554" font-family="Inter,Arial,sans-serif" font-size="14px" font-weight="400" fill="#F2F5F7" text-anchor="end">♥</text><circle cx="913" cy="572" r="4" fill="#F5C542"/><rect x="948" y="398" width="228" height="184" rx="9" fill="#1B242C" stroke="#8B95A0" stroke-width="2"/><rect x="950" y="400" width="224" height="118" rx="8" fill="#31536A"/><path d="M950 484.96 Q990.32 456.64 1035.12 484.96 T1111.28 473.15999999999997 T1174 484.96 L1174 518 L950 518 Z" fill="#182E24"/><ellipse cx="1066.48" cy="468.44" rx="29.12" ry="21.24" fill="#171D20"/><circle cx="1079.92" cy="444.84000000000003" r="10.030000000000001" fill="#171D20"/><circle cx="1088.88" cy="441.89" r="1.6520000000000001" fill="#DCEB74"/><path d="M1079.92 449.56 L1106.8 455.46" stroke="#171D20" stroke-width="3" stroke-linecap="round"/><rect x="956" y="490" width="90" height="26" rx="6" fill="#0B1014CC"/><text x="964" y="509" font-family="Inter,Arial,sans-serif" font-size="18px" font-weight="700" fill="#F2F5F7" text-anchor="start">0.784</text><text x="956" y="538" font-family="Inter,Arial,sans-serif" font-size="11px" font-weight="500" fill="#F2F5F7" text-anchor="start">009  DSC00042.ARW</text><text x="956" y="555" font-family="Inter,Arial,sans-serif" font-size="10px" font-weight="400" fill="#9AA8B2" text-anchor="start">14:23:51</text><text x="1156" y="554" font-family="Inter,Arial,sans-serif" font-size="14px" font-weight="400" fill="#F2F5F7" text-anchor="end">♥</text><circle cx="1151" cy="572" r="4" fill="#8B95A0"/><rect x="1186" y="398" width="228" height="184" rx="9" fill="#1B242C" stroke="#9B6BDB" stroke-width="2"/><rect x="1188" y="400" width="224" height="118" rx="8" fill="#4A6B52"/><path d="M1188 484.96 Q1228.32 456.64 1273.12 484.96 T1349.28 473.15999999999997 T1412 484.96 L1412 518 L1188 518 Z" fill="#24382A"/><ellipse cx="1304.48" cy="468.44" rx="29.12" ry="21.24" fill="#171D20"/><circle cx="1317.92" cy="444.84000000000003" r="10.030000000000001" fill="#171D20"/><circle cx="1326.88" cy="441.89" r="1.6520000000000001" fill="#DCEB74"/><path d="M1317.92 449.56 L1344.8 455.46" stroke="#171D20" stroke-width="3" stroke-linecap="round"/><rect x="1194" y="490" width="90" height="26" rx="6" fill="#0B1014CC"/><text x="1202" y="509" font-family="Inter,Arial,sans-serif" font-size="18px" font-weight="700" fill="#F2F5F7" text-anchor="start">0.763</text><text x="1194" y="538" font-family="Inter,Arial,sans-serif" font-size="11px" font-weight="500" fill="#F2F5F7" text-anchor="start">010  DSC00043.ARW</text><text x="1194" y="555" font-family="Inter,Arial,sans-serif" font-size="10px" font-weight="400" fill="#9AA8B2" text-anchor="start">14:23:51</text><text x="1394" y="554" font-family="Inter,Arial,sans-serif" font-size="14px" font-weight="400" fill="#F2F5F7" text-anchor="end">♥</text><circle cx="1389" cy="572" r="4" fill="#9B6BDB"/><rect x="234" y="592" width="228" height="184" rx="9" fill="#1B242C" stroke="#42CC8E" stroke-width="2"/><rect x="236" y="594" width="224" height="118" rx="8" fill="#6A503B"/><path d="M236 678.96 Q276.32 650.64 321.12 678.96 T397.28 667.16 T460 678.96 L460 712 L236 712 Z" fill="#3B2A1D"/><ellipse cx="352.48" cy="662.44" rx="29.12" ry="21.24" fill="#171D20"/><circle cx="365.91999999999996" cy="638.84" r="10.030000000000001" fill="#171D20"/><circle cx="374.88" cy="635.89" r="1.6520000000000001" fill="#DCEB74"/><path d="M365.91999999999996 643.56 L392.79999999999995 649.46" stroke="#171D20" stroke-width="3" stroke-linecap="round"/><rect x="242" y="684" width="90" height="26" rx="6" fill="#0B1014CC"/><text x="250" y="703" font-family="Inter,Arial,sans-serif" font-size="18px" font-weight="700" fill="#F2F5F7" text-anchor="start">0.754</text><text x="242" y="732" font-family="Inter,Arial,sans-serif" font-size="11px" font-weight="500" fill="#F2F5F7" text-anchor="start">011  DSC00044.ARW</text><text x="242" y="749" font-family="Inter,Arial,sans-serif" font-size="10px" font-weight="400" fill="#9AA8B2" text-anchor="start">14:23:51</text><text x="442" y="748" font-family="Inter,Arial,sans-serif" font-size="14px" font-weight="400" fill="#F2F5F7" text-anchor="end">♥</text><circle cx="437" cy="766" r="4" fill="#42CC8E"/><rect x="472" y="592" width="228" height="184" rx="9" fill="#1B242C" stroke="#F5C542" stroke-width="2"/><rect x="474" y="594" width="224" height="118" rx="8" fill="#355F5A"/><path d="M474 678.96 Q514.32 650.64 559.12 678.96 T635.28 667.16 T698 678.96 L698 712 L474 712 Z" fill="#1E352F"/><ellipse cx="590.48" cy="662.44" rx="29.12" ry="21.24" fill="#171D20"/><circle cx="603.92" cy="638.84" r="10.030000000000001" fill="#171D20"/><circle cx="612.88" cy="635.89" r="1.6520000000000001" fill="#DCEB74"/><path d="M603.92 643.56 L630.8 649.46" stroke="#171D20" stroke-width="3" stroke-linecap="round"/><rect x="480" y="684" width="90" height="26" rx="6" fill="#0B1014CC"/><text x="488" y="703" font-family="Inter,Arial,sans-serif" font-size="18px" font-weight="700" fill="#F2F5F7" text-anchor="start">0.721</text><text x="480" y="732" font-family="Inter,Arial,sans-serif" font-size="11px" font-weight="500" fill="#F2F5F7" text-anchor="start">012  DSC00045.ARW</text><text x="480" y="749" font-family="Inter,Arial,sans-serif" font-size="10px" font-weight="400" fill="#9AA8B2" text-anchor="start">14:23:51</text><text x="680" y="748" font-family="Inter,Arial,sans-serif" font-size="14px" font-weight="400" fill="#F2F5F7" text-anchor="end">♥</text><circle cx="675" cy="766" r="4" fill="#F5C542"/><rect x="710" y="592" width="228" height="184" rx="9" fill="#1B242C" stroke="#EF4444" stroke-width="2"/><rect x="712" y="594" width="224" height="118" rx="8" fill="#31536A"/><path d="M712 678.96 Q752.32 650.64 797.12 678.96 T873.28 667.16 T936 678.96 L936 712 L712 712 Z" fill="#182E24"/><ellipse cx="828.48" cy="662.44" rx="29.12" ry="21.24" fill="#171D20"/><circle cx="841.92" cy="638.84" r="10.030000000000001" fill="#171D20"/><circle cx="850.88" cy="635.89" r="1.6520000000000001" fill="#DCEB74"/><path d="M841.92 643.56 L868.8 649.46" stroke="#171D20" stroke-width="3" stroke-linecap="round"/><rect x="718" y="684" width="90" height="26" rx="6" fill="#0B1014CC"/><text x="726" y="703" font-family="Inter,Arial,sans-serif" font-size="18px" font-weight="700" fill="#F2F5F7" text-anchor="start">0.681</text><text x="718" y="732" font-family="Inter,Arial,sans-serif" font-size="11px" font-weight="500" fill="#F2F5F7" text-anchor="start">013  DSC00046.ARW</text><text x="718" y="749" font-family="Inter,Arial,sans-serif" font-size="10px" font-weight="400" fill="#9AA8B2" text-anchor="start">14:23:51</text><text x="918" y="748" font-family="Inter,Arial,sans-serif" font-size="14px" font-weight="400" fill="#F2F5F7" text-anchor="end">♥</text><circle cx="913" cy="766" r="4" fill="#EF4444"/><rect x="948" y="592" width="228" height="184" rx="9" fill="#1B242C" stroke="#EF4444" stroke-width="2"/><rect x="950" y="594" width="224" height="118" rx="8" fill="#4A6B52"/><path d="M950 678.96 Q990.32 650.64 1035.12 678.96 T1111.28 667.16 T1174 678.96 L1174 712 L950 712 Z" fill="#24382A"/><ellipse cx="1066.48" cy="662.44" rx="29.12" ry="21.24" fill="#171D20"/><circle cx="1079.92" cy="638.84" r="10.030000000000001" fill="#171D20"/><circle cx="1088.88" cy="635.89" r="1.6520000000000001" fill="#DCEB74"/><path d="M1079.92 643.56 L1106.8 649.46" stroke="#171D20" stroke-width="3" stroke-linecap="round"/><rect x="956" y="684" width="90" height="26" rx="6" fill="#0B1014CC"/><text x="964" y="703" font-family="Inter,Arial,sans-serif" font-size="18px" font-weight="700" fill="#F2F5F7" text-anchor="start">0.642</text><text x="956" y="732" font-family="Inter,Arial,sans-serif" font-size="11px" font-weight="500" fill="#F2F5F7" text-anchor="start">014  DSC00047.ARW</text><text x="956" y="749" font-family="Inter,Arial,sans-serif" font-size="10px" font-weight="400" fill="#9AA8B2" text-anchor="start">14:23:51</text><text x="1156" y="748" font-family="Inter,Arial,sans-serif" font-size="14px" font-weight="400" fill="#F2F5F7" text-anchor="end">♥</text><circle cx="1151" cy="766" r="4" fill="#EF4444"/><rect x="1186" y="592" width="228" height="184" rx="9" fill="#1B242C" stroke="#9B6BDB" stroke-width="2"/><rect x="1188" y="594" width="224" height="118" rx="8" fill="#6A503B"/><path d="M1188 678.96 Q1228.32 650.64 1273.12 678.96 T1349.28 667.16 T1412 678.96 L1412 712 L1188 712 Z" fill="#3B2A1D"/><ellipse cx="1304.48" cy="662.44" rx="29.12" ry="21.24" fill="#171D20"/><circle cx="1317.92" cy="638.84" r="10.030000000000001" fill="#171D20"/><circle cx="1326.88" cy="635.89" r="1.6520000000000001" fill="#DCEB74"/><path d="M1317.92 643.56 L1344.8 649.46" stroke="#171D20" stroke-width="3" stroke-linecap="round"/><rect x="1194" y="684" width="90" height="26" rx="6" fill="#0B1014CC"/><text x="1202" y="703" font-family="Inter,Arial,sans-serif" font-size="18px" font-weight="700" fill="#F2F5F7" text-anchor="start">0.598</text><text x="1194" y="732" font-family="Inter,Arial,sans-serif" font-size="11px" font-weight="500" fill="#F2F5F7" text-anchor="start">015  DSC00048.ARW</text><text x="1194" y="749" font-family="Inter,Arial,sans-serif" font-size="10px" font-weight="400" fill="#9AA8B2" text-anchor="start">14:23:51</text><text x="1394" y="748" font-family="Inter,Arial,sans-serif" font-size="14px" font-weight="400" fill="#F2F5F7" text-anchor="end">♥</text><circle cx="1389" cy="766" r="4" fill="#9B6BDB"/><circle cx="250" cy="850" r="5" fill="#42CC8E"/><text x="262" y="855" font-family="Inter,Arial,sans-serif" font-size="11px" font-weight="400" fill="#9AA8B2" text-anchor="start">Keep</text><circle cx="365" cy="850" r="5" fill="#F5C542"/><text x="377" y="855" font-family="Inter,Arial,sans-serif" font-size="11px" font-weight="400" fill="#9AA8B2" text-anchor="start">Review</text><circle cx="480" cy="850" r="5" fill="#EF4444"/><text x="492" y="855" font-family="Inter,Arial,sans-serif" font-size="11px" font-weight="400" fill="#9AA8B2" text-anchor="start">Reject</text><circle cx="595" cy="850" r="5" fill="#8B95A0"/><text x="607" y="855" font-family="Inter,Arial,sans-serif" font-size="11px" font-weight="400" fill="#9AA8B2" text-anchor="start">Filtered Out</text><circle cx="710" cy="850" r="5" fill="#9B6BDB"/><text x="722" y="855" font-family="Inter,Arial,sans-serif" font-size="11px" font-weight="400" fill="#9AA8B2" text-anchor="start">Skipped</text></svg>